<?xml version="1.0" encoding="utf-8"?>
<!-- Generator: Adobe Illustrator 22.1.0, SVG Export Plug-In . SVG Version: 6.00 Build 0)  -->
<svg version="1.1" id="Layer_1" xmlns="http://www.w3.org/2000/svg" xmlns:xlink="http://www.w3.org/1999/xlink" x="0px" y="0px"
	 viewBox="0 0 1920 970" style="enable-background:new 0 0 1920 970;" xml:space="preserve">
<style type="text/css">
	.st0{fill-rule:evenodd;clip-rule:evenodd;}
</style>
<path fill-opacity="0.6" class="st0" d="M0,0h1920v970H0V0L0,0z M48.7,555.9l145.7-30.7l116.3,11.9l240.9-34.1l205.6,39.9l335.4-32.6l46.5,18.4
	l209.1-19.2l94.8,4.1l2.9,2.7v25.3l71.7-0.8l236.8-14.7v7.5l137.4-7.2l0.4-80.5l-137.8,13.9v-25.5l-127.6,14.5l-0.1-1.5l-109.1,11.1
	l-71.7,7.4l-2.9-6.1v-37.5l-94.8-7.5l-209.1,30.6l-46.5-32.4l-331.3,55l-209.8-64.9l-240.9,57.7l-116.3-23.5L48.7,480.8V555.9
	L48.7,555.9z"/>
</svg>
