<?xml version="1.0" encoding="utf-8"?>
<!-- Generator: Adobe Illustrator 22.1.0, SVG Export Plug-In . SVG Version: 6.00 Build 0)  -->
<svg version="1.1" id="Layer_1" xmlns="http://www.w3.org/2000/svg" xmlns:xlink="http://www.w3.org/1999/xlink" x="0px" y="0px"
	 viewBox="0 0 1920 970" style="enable-background:new 0 0 1920 970;" xml:space="preserve">
<style type="text/css">
	.st0{fill-rule:evenodd;clip-rule:evenodd;}
</style>
<path fill-opacity="0.6" class="st0" d="M0,0h1920v970H0V0L0,0z M48.7,611.2l145.7-16.1l116.3,6.2l240.9-20.5l204.6,24.8l336.4-18.9l47.7,13l207.9-6.4
	l94.8,3.1l2.9,0.6v9.1l71.7-1.1l236.8-6.6v7.8l137.4-3.4v-76.3l-137.4,7.2v-7.5l-236.8,14.7l-71.7,1.1v-25.6l-2.9-2.7l-94.8-4.1
	l-209.1,19.2l-46.5-18.4L756.1,543l-204.6-40l-240.9,34.1l-116.3-11.9L48.7,555.9V611.2L48.7,611.2z"/>
</svg>
