<?xml version="1.0" encoding="utf-8"?>
<!-- Generator: Adobe Illustrator 22.1.0, SVG Export Plug-In . SVG Version: 6.00 Build 0)  -->
<svg version="1.1" id="Layer_1" xmlns="http://www.w3.org/2000/svg" xmlns:xlink="http://www.w3.org/1999/xlink" x="0px" y="0px"
	 viewBox="0 0 1920 970" style="enable-background:new 0 0 1920 970;" xml:space="preserve">
<style type="text/css">
	.st0{fill-rule:evenodd;clip-rule:evenodd;}
</style>
<path fill-opacity="0.6" class="st0" d="M0,0h1920v970H0V0L0,0z M48.7,675.3l145.7-3.8l116.3,4l240.9-4.7l205.7,3l335.3-6.6l46.5,2.3l209.1-2.2
	l94.7-0.2l2.9-0.3l71.6,0.1l236.9-3.4l137.4-0.9v-60l-137.4,3.4v-7.8l-234.5,6.5l-2.4,0.1l-71.7,1.1v-9.1l-2.9-0.6l-94.8-3.1
	l-207.9,6.4l-47.7-13l-336.4,18.9l-204.6-24.9l-240.9,20.6l-116.3-6.2L48.7,611.2V675.3L48.7,675.3z"/>
</svg>
