<?xml version="1.0" encoding="utf-8"?>
<!-- Generator: Adobe Illustrator 22.1.0, SVG Export Plug-In . SVG Version: 6.00 Build 0)  -->
<svg version="1.1" id="Layer_1" xmlns="http://www.w3.org/2000/svg" xmlns:xlink="http://www.w3.org/1999/xlink" x="0px" y="0px"
	 viewBox="0 0 1920 970" style="enable-background:new 0 0 1920 970;" xml:space="preserve">
<style type="text/css">
	.st0{fill-rule:evenodd;clip-rule:evenodd;}
</style>
<path fill-opacity="0.6" class="st0" d="M0,0h1920v970H0V0L0,0z M48.7,742.4l146.1,4.1l115.4-4l241.3,5.5l204.6-6.8l336.4,5.2l46.5-3l209.1,2.8
	l94.8-1.3l8.2-1.8l66.4,1.9l236.8,2.5l137.4,1.6v-86.5l-137.4,0.9l-236.8,3.4l-71.7-0.2l-2.9,0.3l-94.7,0.2l-207.9,2.2l-47.7-2.4
	l-335.3,6.6l-205.7-3l-240.9,4.7l-116.3-4l-145.7,3.8V742.4L48.7,742.4z"/>
</svg>
